<?xml version="1.0" encoding="UTF-8" standalone="no"?>
<!-- Created with Inkscape (http://www.inkscape.org/) -->

<svg
   width="368.19562mm"
   height="502.2471mm"
   viewBox="0 0 368.19562 502.2471"
   version="1.1"
   id="svg5"
   xml:space="preserve"
   inkscape:export-filename="logoActualizado.png"
   inkscape:export-xdpi="96"
   inkscape:export-ydpi="96"
   sodipodi:docname="logoActualizado.svg"
   xmlns:inkscape="http://www.inkscape.org/namespaces/inkscape"
   xmlns:sodipodi="http://sodipodi.sourceforge.net/DTD/sodipodi-0.dtd"
   xmlns="http://www.w3.org/2000/svg"
   xmlns:svg="http://www.w3.org/2000/svg"><sodipodi:namedview
     id="namedview7"
     pagecolor="#ffffff"
     bordercolor="#000000"
     borderopacity="0.25"
     inkscape:showpageshadow="2"
     inkscape:pageopacity="0.0"
     inkscape:pagecheckerboard="0"
     inkscape:deskcolor="#d1d1d1"
     inkscape:document-units="mm"
     showgrid="false"
     inkscape:zoom="0.5946522"
     inkscape:cx="311.10622"
     inkscape:cy="580.17106"
     inkscape:window-width="960"
     inkscape:window-height="1017"
     inkscape:window-x="-8"
     inkscape:window-y="-8"
     inkscape:window-maximized="0"
     inkscape:current-layer="g1088" /><defs
     id="defs2"><inkscape:path-effect
       effect="bspline"
       id="path-effect799"
       is_visible="true"
       lpeversion="1"
       weight="33.333333"
       steps="2"
       helper_size="0"
       apply_no_weight="true"
       apply_with_weight="true"
       only_selected="false" /><inkscape:path-effect
       effect="bspline"
       id="path-effect546"
       is_visible="true"
       lpeversion="1"
       weight="33.333333"
       steps="2"
       helper_size="0"
       apply_no_weight="true"
       apply_with_weight="true"
       only_selected="false" /><inkscape:path-effect
       effect="bspline"
       id="path-effect542"
       is_visible="true"
       lpeversion="1"
       weight="33.333333"
       steps="2"
       helper_size="0"
       apply_no_weight="true"
       apply_with_weight="true"
       only_selected="false" /><inkscape:path-effect
       effect="bspline"
       id="path-effect538"
       is_visible="true"
       lpeversion="1"
       weight="33.333333"
       steps="2"
       helper_size="0"
       apply_no_weight="true"
       apply_with_weight="true"
       only_selected="false" /><inkscape:path-effect
       effect="bspline"
       id="path-effect530"
       is_visible="true"
       lpeversion="1"
       weight="33.333333"
       steps="2"
       helper_size="0"
       apply_no_weight="true"
       apply_with_weight="true"
       only_selected="false" /><inkscape:path-effect
       effect="bspline"
       id="path-effect511"
       is_visible="true"
       lpeversion="1"
       weight="33.333333"
       steps="2"
       helper_size="0"
       apply_no_weight="true"
       apply_with_weight="true"
       only_selected="false" /><inkscape:path-effect
       effect="bspline"
       id="path-effect494"
       is_visible="true"
       lpeversion="1"
       weight="33.333333"
       steps="2"
       helper_size="0"
       apply_no_weight="true"
       apply_with_weight="true"
       only_selected="false" /><inkscape:path-effect
       effect="bspline"
       id="path-effect479"
       is_visible="true"
       lpeversion="1"
       weight="33.333333"
       steps="2"
       helper_size="0"
       apply_no_weight="true"
       apply_with_weight="true"
       only_selected="false" /><inkscape:path-effect
       effect="bspline"
       id="path-effect479-8"
       is_visible="true"
       lpeversion="1"
       weight="33.333333"
       steps="2"
       helper_size="0"
       apply_no_weight="true"
       apply_with_weight="true"
       only_selected="false" /><inkscape:path-effect
       effect="bspline"
       id="path-effect494-3"
       is_visible="true"
       lpeversion="1"
       weight="33.333333"
       steps="2"
       helper_size="0"
       apply_no_weight="true"
       apply_with_weight="true"
       only_selected="false" /><inkscape:path-effect
       effect="bspline"
       id="path-effect511-4"
       is_visible="true"
       lpeversion="1"
       weight="33.333333"
       steps="2"
       helper_size="0"
       apply_no_weight="true"
       apply_with_weight="true"
       only_selected="false" /><inkscape:path-effect
       effect="bspline"
       id="path-effect530-0"
       is_visible="true"
       lpeversion="1"
       weight="33.333333"
       steps="2"
       helper_size="0"
       apply_no_weight="true"
       apply_with_weight="true"
       only_selected="false" /><inkscape:path-effect
       effect="bspline"
       id="path-effect538-2"
       is_visible="true"
       lpeversion="1"
       weight="33.333333"
       steps="2"
       helper_size="0"
       apply_no_weight="true"
       apply_with_weight="true"
       only_selected="false" /><inkscape:path-effect
       effect="bspline"
       id="path-effect542-9"
       is_visible="true"
       lpeversion="1"
       weight="33.333333"
       steps="2"
       helper_size="0"
       apply_no_weight="true"
       apply_with_weight="true"
       only_selected="false" /><inkscape:path-effect
       effect="bspline"
       id="path-effect546-0"
       is_visible="true"
       lpeversion="1"
       weight="33.333333"
       steps="2"
       helper_size="0"
       apply_no_weight="true"
       apply_with_weight="true"
       only_selected="false" /></defs><g
     inkscape:label="Capa 1"
     inkscape:groupmode="layer"
     id="layer1"
     transform="translate(-775.90228,-83.438619)"><g
       id="g23288"
       transform="matrix(0.56525205,0,0,0.56525205,-694.98445,-56.547492)"><g
         id="g17298"
         transform="translate(1193.0312,3.1019678)" /><g
         id="g1088"
         transform="matrix(1.1971759,0,0,1.1971759,-296.81723,-94.221595)"><g
           id="g2691"
           transform="matrix(3.8597945,0,0,3.8597945,-2826.334,-816.66346)"><path
             style="fill:#000000;fill-opacity:0.984234;stroke:#d4d4d4;stroke-width:11.1;stroke-linejoin:round;stroke-miterlimit:0;stroke-opacity:0"
             d="m 234.14642,294.1627 c 0.55496,-1.21665 1.6651,-3.65039 2.22539,-4.88283 0.56028,-1.23244 0.57067,-1.26365 0.58632,-1.29249 0.0156,-0.0288 0.0365,-0.0549 0.5798,1.20867 0.54327,1.26361 1.60836,3.81565 2.13206,5.09108 0.5237,1.27544 0.5054,1.27544 0.96001,1.26516 0.45461,-0.0103 1.38201,-0.0308 2.14041,-0.0115 0.7584,0.0193 1.34765,0.0782 2.03241,0.17705 0.68475,0.0989 1.46494,0.23755 2.35247,0.4476 0.88753,0.21004 1.8823,0.49129 2.96044,0.88983 1.07814,0.39854 2.23959,0.91416 3.33594,1.44546 1.09636,0.53131 2.12758,1.07817 2.81245,1.47932 0.68486,0.40114 1.0234,0.65635 1.26554,0.85434 0.24214,0.19798 0.38796,0.3386 0.46037,0.40843 0.0724,0.0698 0.15051,0.14792 5.78382,-0.97457 5.63331,-1.1225 16.89871,-3.36724 22.58883,-4.50005 5.69012,-1.13281 5.80471,-1.15364 5.83549,-1.12743 0.0308,0.0262 -0.0213,0.0991 -3.42224,2.51046 -3.40095,2.41135 -10.15081,7.16125 -13.69252,9.66909 -3.54171,2.50783 -3.87504,2.77345 -4.0808,2.94274 -0.20576,0.16929 -0.28391,0.24223 -0.3387,0.33635 -0.0548,0.0941 -0.086,0.20869 -0.078,0.44588 0.008,0.2372 0.0549,0.59655 0.11482,0.94815 0.0599,0.3516 0.13286,0.69534 0.29468,0.99996 0.16182,0.30463 0.41182,0.57025 0.64627,0.7863 0.23445,0.21606 0.4532,0.38273 1.36461,1.27605 0.91142,0.89332 2.51555,2.51308 3.61959,3.80223 1.10404,1.28916 1.7082,2.24747 2.802,3.82039 1.09381,1.57292 2.67712,3.76038 4.01041,5.72917 1.3333,1.96878 2.41661,3.71875 2.9894,4.6745 0.57279,0.95575 0.63529,1.11721 0.67937,1.35151 0.0441,0.23431 0.0701,0.54161 0.0883,0.9244 0.0182,0.38278 0.0286,0.84111 0.13468,9.5176 0.1061,8.67648 0.30791,25.57045 0.4125,34.12442 0.1046,8.55396 0.11197,8.76758 -1.76269,11.04315 -1.87465,2.27556 -5.63108,6.61387 -7.61613,8.90091 -1.98504,2.28703 -2.19865,2.52273 -2.47085,2.69202 -0.27219,0.16929 -0.60364,0.2724 -0.97915,0.33876 -0.37551,0.0664 -0.79534,0.0958 -1.26304,0.11427 -0.46769,0.0184 -0.98328,0.0258 -1.43997,0.0369 -0.45669,0.011 -0.85443,0.0258 -1.10848,-0.0106 -0.25406,-0.0364 -0.36454,-0.12476 -0.47882,-0.2425 -0.11427,-0.11774 -0.23212,-0.26505 -0.7035,-0.80646 -0.47139,-0.54141 -1.29633,-1.47684 -1.77145,-2.02556 -0.47513,-0.54871 -0.60035,-0.71076 -0.66338,-0.79234 -0.063,-0.0816 -0.32821,-0.34674 -0.40871,-0.3504 -0.0805,-0.004 -0.24255,-0.011 -0.41238,0.0478 -0.16984,0.0588 -0.34661,0.18405 -0.53819,0.33877 -0.19158,0.15472 -0.39781,0.33886 -3.8781,2.77322 -3.48028,2.43437 -10.23449,7.11886 -13.71111,9.53112 -3.47661,2.41227 -3.67548,2.55222 -3.845,2.69593 -0.16952,0.14372 -0.30947,0.29103 -0.43979,0.46535 -0.13033,0.17431 -0.25084,0.37533 -0.40383,0.71058 -0.15298,0.33526 -0.33838,0.80449 -0.46225,1.15337 -0.12387,0.34888 -0.18621,0.5772 -0.2579,0.85712 -0.0717,0.27992 -0.1527,0.61136 -0.22269,0.86542 -0.07,0.25406 -0.12891,0.43084 -0.17305,0.67406 -0.0441,0.24323 -0.0736,0.55257 -0.11414,0.89506 -0.0405,0.34249 -0.0921,0.71813 -0.12524,0.94642 -0.0332,0.2283 -0.0479,0.30936 -0.15782,0.34947 -0.10991,0.0401 -0.31615,0.0401 -2.08026,0.0291 -1.76411,-0.011 -5.08597,-0.0331 -6.77639,-0.0442 -1.69042,-0.0111 -1.74937,-0.0111 -1.83033,-0.0183 -0.081,-0.007 -0.18409,-0.022 -0.30978,-0.49294 -0.12569,-0.47093 -0.273,-1.39899 -0.47178,-2.26812 -0.19878,-0.86913 -0.44921,-1.67934 -0.64072,-2.30543 -0.19152,-0.62609 -0.3241,-1.06802 -0.50062,-1.42899 -0.17653,-0.36097 -0.39749,-0.64086 -0.89086,-1.03141 -0.49336,-0.39056 -1.25938,-0.89142 -4.86127,-3.21167 -3.60188,-2.32024 -10.03938,-6.45968 -13.40558,-8.67662 -3.36621,-2.21695 -3.66083,-2.51158 -3.89654,-2.65939 -0.2357,-0.14781 -0.41247,-0.14781 -0.93602,0.51524 -0.52356,0.66304 -1.39269,1.98884 -1.90058,2.68099 -0.50789,0.69215 -0.65521,0.75107 -0.97172,0.78799 -0.3165,0.0369 -0.80263,0.0517 -1.42134,0.059 -0.61871,0.007 -1.36999,0.007 -1.91506,0.007 -0.54506,0 -0.88388,0 -3.06422,-2.45965 -2.18034,-2.45964 -6.20193,-7.37983 -8.29404,-10.08299 -2.0921,-2.70316 -2.25414,-3.18928 -2.24698,-11.88844 0.007,-8.69916 0.18393,-25.61046 0.27233,-34.47876 0.0884,-8.8683 0.0884,-9.69325 0.16195,-10.3269 0.0736,-0.63365 0.22087,-1.07559 1.08272,-2.27646 0.86186,-1.20087 2.43809,-3.1601 5.05294,-6.51153 2.61485,-3.35142 6.26816,-8.09483 8.13901,-10.54751 1.87085,-2.45268 1.95923,-2.61472 1.9962,-2.78376 0.037,-0.16905 0.0222,-0.34584 -3.37147,-2.81184 -3.39369,-2.46599 -10.16717,-7.22078 -13.62827,-9.72558 -3.4611,-2.50479 -3.60951,-2.76037 -3.6518,-2.88706 -0.0423,-0.12669 0.0207,-0.12436 0.15113,-0.11263 0.1304,0.0117 0.31847,0.0318 6.31392,1.11619 5.99544,1.08443 16.77869,3.04881 22.39935,3.96725 5.62066,0.91845 5.57856,0.69874 5.90122,0.31742 0.32266,-0.38131 1.01015,-0.92297 2.344,-1.62 1.33386,-0.69704 3.31364,-1.54931 4.62042,-2.04172 1.30678,-0.49241 1.94022,-0.62499 2.5921,-0.75757 0.65187,-0.13258 1.32214,-0.26516 1.98515,-0.34613 0.66301,-0.081 1.31854,-0.11044 1.97783,-0.10302 0.65929,0.007 1.32219,0.0516 1.8194,0.0922 0.4972,0.0405 0.82866,0.0774 1.05307,0.0772 0.22442,-1.5e-4 0.34229,-0.037 0.40089,-0.0553 0.0586,-0.0183 0.0586,-0.0183 0.61359,-1.23497 z"
             id="path797"
             inkscape:path-effect="#path-effect799"
             inkscape:original-d="m 233.59145,295.37934 c 1.11114,-2.43274 2.22128,-4.86648 3.33042,-7.30122 0.0114,-0.0303 0.0218,-0.0615 0.0312,-0.0937 0.0218,-0.025 0.0427,-0.0511 0.0625,-0.0781 1.06613,2.55313 2.13121,5.10517 3.19532,7.65625 -0.0172,0.001 -0.0355,0.001 -0.0547,0 0.92844,-0.0195 1.85584,-0.0401 2.78226,-0.0616 0.59027,0.0599 1.17952,0.11885 1.76777,0.17677 0.78121,0.13971 1.5614,0.2784 2.34059,0.4161 0.99582,0.28226 1.99059,0.5635 2.98438,0.84375 1.16248,0.51663 2.32392,1.03225 3.48437,1.54687 1.03228,0.54789 2.0635,1.09475 3.09375,1.64063 0.33955,0.25621 0.67809,0.51142 1.01563,0.76562 0.14684,0.14163 0.29267,0.28225 0.4375,0.42188 l 0.0781,0.0781 c 11.26685,-2.24383 22.53225,-4.48858 33.79688,-6.73437 0.11559,-0.0198 0.23017,-0.0407 0.34375,-0.0625 -0.0511,0.0739 -0.10317,0.14683 -0.15625,0.21875 -6.74914,4.75109 -13.499,9.501 -20.25,14.25 -0.33234,0.26663 -0.66567,0.53225 -1,0.79687 -0.0771,0.0739 -0.15525,0.14684 -0.23438,0.21875 -0.0303,0.11559 -0.0615,0.23017 -0.0937,0.34375 0.0479,0.36039 0.0947,0.71975 0.14063,1.07813 0.0739,0.34476 0.14683,0.6885 0.21875,1.03125 0.251,0.26663 0.501,0.53225 0.75,0.79687 0.21975,0.16767 0.4385,0.33434 0.65625,0.5 1.6052,1.62083 3.20933,3.24059 4.8125,4.85938 0.60518,0.95935 1.20933,1.91767 1.8125,2.875 1.58436,2.18854 3.16767,4.376 4.75,6.5625 1.08435,1.75103 2.16767,3.501 3.25,5.25 0.0635,0.16246 0.126,0.32392 0.1875,0.48437 0.027,0.3083 0.0531,0.61559 0.0781,0.92188 0.0114,0.45934 0.0218,0.91767 0.0312,1.375 0.20282,16.89565 0.40462,33.78962 0.60542,50.68294 0.008,0.2146 0.0157,0.42821 0.0221,0.64081 -3.75558,4.33948 -7.51201,8.67779 -11.26951,13.01519 -0.21261,0.2367 -0.42621,0.4724 -0.64082,0.7071 -0.33046,0.10412 -0.66191,0.20724 -0.99437,0.30936 -0.41885,0.0305 -0.83869,0.0599 -1.25953,0.0884 -0.51461,0.008 -1.0302,0.0157 -1.5468,0.0221 -0.39675,0.0157 -0.79449,0.0305 -1.19324,0.0442 -0.10949,-0.0874 -0.21997,-0.17578 -0.33146,-0.26516 -0.11685,-0.14632 -0.2347,-0.29363 -0.35355,-0.44195 -0.82397,-0.93446 -1.64892,-1.86988 -2.47487,-2.80633 -0.12422,-0.16104 -0.24944,-0.32309 -0.37565,-0.48613 l -0.26517,-0.26517 c -0.16105,-0.006 -0.32309,-0.0137 -0.48613,-0.0221 -0.17578,0.12622 -0.35256,0.25143 -0.53033,0.37565 -0.20525,0.18514 -0.41148,0.36928 -0.61872,0.55242 -6.75348,4.68568 -13.50769,9.37017 -20.26303,14.05375 -0.19788,0.14095 -0.39675,0.2809 -0.59662,0.41985 -0.13895,0.14831 -0.2789,0.29562 -0.41985,0.44194 -0.11954,0.20205 -0.24006,0.40306 -0.36159,0.6031 -0.18441,0.47024 -0.36981,0.93947 -0.55621,1.40773 -0.0614,0.22934 -0.1237,0.45767 -0.18705,0.68501 -0.08,0.33247 -0.16105,0.66391 -0.24307,0.99437 -0.0579,0.17778 -0.11685,0.35455 -0.17678,0.53033 -0.0285,0.31037 -0.0579,0.61972 -0.0884,0.92808 -0.0506,0.37666 -0.10212,0.7523 -0.15468,1.12695 -0.0137,0.082 -0.0285,0.16305 -0.0442,0.24307 -0.20524,0.001 -0.41148,0.001 -0.61872,0 -3.32099,-0.0211 -6.64285,-0.0432 -9.96578,-0.0663 -0.0579,0.001 -0.11685,0.001 -0.17678,0 -0.10212,-0.0137 -0.20524,-0.0285 -0.30936,-0.0442 -0.14632,-0.92709 -0.29363,-1.85515 -0.44194,-2.78423 -0.24944,-0.80924 -0.49987,-1.61945 -0.7513,-2.43068 -0.13159,-0.44095 -0.26417,-0.88288 -0.39775,-1.32583 -0.21998,-0.2789 -0.44094,-0.55879 -0.66291,-0.83968 -0.76505,-0.49988 -1.53107,-1.00074 -2.2981,-1.50261 -6.43675,-4.1386 -12.87424,-8.27804 -19.31285,-12.41856 -0.29364,-0.29363 -0.58826,-0.58826 -0.88389,-0.88388 -0.17578,0.001 -0.35255,0.001 -0.53033,0 -0.86817,1.32685 -1.7373,2.65265 -2.60745,3.97747 -0.14632,0.0599 -0.29363,0.11885 -0.44195,0.17678 -0.48514,0.0157 -0.97127,0.0305 -1.4584,0.0442 -0.75032,10e-4 -1.5016,10e-4 -2.25391,0 -0.33782,10e-4 -0.67664,10e-4 -1.01646,0 -4.02075,-4.91938 -8.04234,-9.83957 -12.06501,-14.76085 -0.16105,-0.48515 -0.32309,-0.97127 -0.48614,-1.45841 0.17778,-16.91097 0.35456,-33.82227 0.53033,-50.73491 10e-4,-0.82397 10e-4,-1.64892 0,-2.47487 0.14832,-0.44095 0.29563,-0.88289 0.44194,-1.32583 1.5773,-1.95831 3.15352,-3.91755 4.72878,-5.87782 3.65446,-4.74261 7.30777,-9.48602 10.96016,-14.23053 0.0894,-0.16105 0.17777,-0.32309 0.26516,-0.48613 -0.0137,-0.17578 -0.0285,-0.35256 -0.0442,-0.53033 -6.77266,-4.75403 -13.54617,-9.50878 -20.32081,-14.26463 -0.14712,-0.25408 -0.29553,-0.50966 -0.44436,-0.76523 0.0639,0.003 0.12691,0.006 0.18906,0.007 0.1986,0.022 0.38666,0.0421 0.59162,0.063 11.78589,2.14784 22.56914,4.11222 33.85248,6.16688 -0.0411,-0.21871 -0.0832,-0.43842 -0.1263,-0.65912 0.68851,-0.54068 1.376,-1.08233 2.0625,-1.625 1.98086,-0.8513 3.96064,-1.70357 5.93946,-2.55686 0.63446,-0.13158 1.2679,-0.26416 1.90035,-0.39774 0.67129,-0.13159 1.34156,-0.26417 2.01084,-0.39775 0.65656,-0.0285 1.31209,-0.0579 1.96664,-0.0884 0.66392,0.0452 1.32682,0.0894 1.98873,0.13258 0.33247,0.0378 0.66392,0.0747 0.99437,0.11049 0.11886,-0.0358 0.23671,-0.0727 0.35356,-0.11049 z"
             sodipodi:nodetypes="sccccccccccccccccccccccccccccccccccccccccccccccccccccccccccccccccccccccccccccccccccccccccccccccccccss"
             transform="translate(1193.0312,3.1019663)" /><path
             style="fill:#435058;fill-opacity:1;stroke:#d4d4d4;stroke-width:7.23302;stroke-linejoin:round;stroke-miterlimit:0;stroke-opacity:0"
             d="m 215.12795,332.9387 c 1.84508,-0.95741 5.53506,-2.87215 7.50401,-3.89851 1.96896,-1.02637 2.2169,-1.16436 2.34079,-1.39684 0.12389,-0.23248 0.12389,-0.56022 0.0367,-0.81898 -0.0872,-0.25877 -0.26221,-0.44851 -3.11356,-2.61348 -2.85135,-2.16497 -8.37892,-6.30486 -11.22296,-8.40945 -2.84404,-2.10459 -3.00447,-2.17358 -3.19418,-2.19965 -0.18972,-0.0261 -0.40849,-0.009 -1.45164,1.01761 -1.04315,1.02644 -2.90998,3.06189 -3.92365,4.18316 -1.01367,1.12128 -1.1741,1.32827 -1.2105,4.53709 -0.0364,3.20882 0.0511,9.41865 0.10217,12.62714 0.0511,3.2085 0.0656,3.41549 0.28474,3.5791 0.21911,0.1636 0.64206,0.28435 1.04293,0.27556 0.40087,-0.009 0.78,-0.14675 2.04647,-0.83542 1.26647,-0.68866 3.42032,-1.92801 5.0538,-2.86811 1.63347,-0.9401 2.74662,-1.58098 3.30322,-1.90139 0.55659,-0.32041 0.55657,-0.32043 2.40167,-1.27783 z"
             id="path477"
             inkscape:original-d="m 213.28287,333.89612 c 3.69058,-1.91403 7.38056,-3.82876 11.06994,-5.74421 0.24855,-0.13729 0.49649,-0.27529 0.74383,-0.41399 6e-4,-0.32705 6e-4,-0.65479 0,-0.98325 -0.17442,-0.18904 -0.34944,-0.37878 -0.52505,-0.56924 -5.52719,-4.13934 -11.05475,-8.27923 -16.58303,-12.41991 -0.15984,-0.0683 -0.32027,-0.13729 -0.48131,-0.20699 -0.21817,0.0179 -0.43694,0.0352 -0.65632,0.0517 -1.8663,2.03624 -3.73313,4.07168 -5.6006,6.10646 -0.15983,0.20771 -0.32026,0.4147 -0.4813,0.62099 0.0881,6.21078 0.17562,12.42061 0.26253,18.62985 0.0152,0.20772 0.0298,0.41471 0.0437,0.621 0.42357,0.12146 0.84652,0.24221 1.26889,0.36225 0.37981,-0.1373 0.75881,-0.27561 1.13762,-0.414 2.15423,-1.23895 4.30801,-2.47842 6.46159,-3.71807 1.11322,-0.6408 2.22659,-1.2813 3.33946,-1.92264 4.1e-4,4.1e-4 5e-5,5e-5 5e-5,5e-5 z"
             inkscape:path-effect="#path-effect479"
             transform="translate(1193.0312,3.1019663)"
             sodipodi:nodetypes="ccccccccccccccccc" /><path
             style="fill:#f1f2ee;fill-opacity:0.756863;stroke:#d4d4d4;stroke-width:7.23302;stroke-linejoin:round;stroke-miterlimit:0;stroke-opacity:0"
             d="m 226.37574,332.555 c -3.24852,1.56122 -9.74576,4.68378 -13.09757,6.31217 -3.35181,1.62838 -3.55807,1.76255 -3.65093,2.41552 -0.0928,0.65297 -0.0722,1.82391 -0.0633,2.51154 0.009,0.68762 0.006,0.89193 0.0556,1.05202 0.0493,0.16009 0.1498,0.27596 0.29813,0.38253 0.14834,0.10658 0.34427,0.20415 4.13182,1.44673 3.78755,1.24257 11.1664,3.63018 15.03118,4.83611 3.86479,1.20594 4.21542,1.23033 4.48317,1.10843 0.26776,-0.1219 0.45339,-0.39024 0.53596,-2.76854 0.0826,-2.3783 0.0619,-6.86689 0.0516,-9.2454 -0.0103,-2.37851 -0.0103,-2.64685 -0.6289,-3.89098 -0.61857,-1.24413 -1.85611,-3.46402 -2.54307,-4.61837 -0.68695,-1.15434 -0.82361,-1.24278 -0.958,-1.24915 -0.13439,-0.006 -0.26585,0.0699 -0.33166,0.10801 -0.0658,0.0382 -0.0656,0.0381 -3.31406,1.59938 z"
             id="path492"
             sodipodi:nodetypes="scccccccccccccss"
             inkscape:original-d="m 229.62425,330.99377 c -6.49664,3.12326 -12.99388,6.24582 -19.49172,9.36767 -0.20567,0.13488 -0.41192,0.26906 -0.61879,0.40252 0.0212,1.17169 0.0419,2.34263 0.0619,3.51288 -0.002,0.20502 -0.005,0.40932 -0.008,0.61292 0.10115,0.11659 0.2017,0.23246 0.30165,0.34763 0.19656,0.0983 0.3925,0.19587 0.58785,0.29274 7.37976,2.38842 14.75861,4.77603 22.13703,7.16298 0.35125,0.0251 0.70188,0.0495 1.05193,0.0732 0.18624,-0.26765 0.37187,-0.53599 0.55691,-0.80504 -0.02,-4.48806 -0.0407,-8.97665 -0.0619,-13.46603 6e-4,-0.26764 6e-4,-0.53598 0,-0.80504 -1.237,-2.21928 -2.47454,-4.43918 -3.71271,-6.65984 -0.13605,-0.0877 -0.2727,-0.17615 -0.40995,-0.26529 -0.1309,0.077 -0.26238,0.15318 -0.39447,0.22871 z"
             inkscape:path-effect="#path-effect494"
             transform="translate(1193.0312,3.1019663)" /><path
             style="fill:#dcf763;fill-opacity:1;stroke:#d4d4d4;stroke-width:7.23302;stroke-linejoin:round;stroke-miterlimit:0;stroke-opacity:0"
             d="m 230.65348,361.55663 c 0.0219,-1.31927 0.0656,-3.9585 0.0803,-5.36865 0.0146,-1.41016 7e-5,-1.59128 -0.0835,-1.78104 -0.0836,-0.18975 -0.23674,-0.38812 -0.41532,-0.54783 -0.17857,-0.15971 -0.38275,-0.28046 -2.98987,-0.97922 -2.60711,-0.69876 -7.61692,-1.97522 -10.20214,-2.61786 -2.58523,-0.64264 -2.74565,-0.65127 -2.90283,-0.5477 -0.15717,0.10357 -0.31031,0.31919 -0.39412,0.57819 -0.0838,0.25899 -0.0984,0.56086 0.53994,2.14363 0.63832,1.58277 1.92906,4.44619 2.58894,5.93831 0.65988,1.49211 0.68904,1.61286 0.94821,1.76353 0.25916,0.15067 0.74774,0.33179 2.68755,0.86218 1.93981,0.5304 5.33074,1.41013 7.18299,1.86286 1.85225,0.45274 2.16581,0.47861 2.3881,0.47421 0.22229,-0.004 0.35355,-0.0389 0.42987,-0.12049 0.0763,-0.0816 0.0982,-0.21096 0.10917,-0.27595 0.011,-0.065 0.0109,-0.0649 0.0328,-1.38417 z"
             id="path509"
             inkscape:original-d="m 230.63161,362.87589 c 0.0443,-2.63852 0.0881,-5.27775 0.13126,-7.91769 -0.014,-0.18042 -0.0286,-0.36154 -0.0437,-0.54337 -0.15254,-0.19767 -0.30568,-0.39604 -0.45942,-0.59512 -0.2036,-0.12004 -0.40778,-0.24079 -0.61256,-0.36225 -5.00942,-1.27581 -10.01923,-2.55227 -15.02975,-3.82947 -0.15983,-0.008 -0.32026,-0.0165 -0.4813,-0.0259 -0.15254,0.21633 -0.30568,0.43195 -0.45942,0.64687 -0.014,0.30258 -0.0286,0.60445 -0.0437,0.90561 1.29139,2.86424 2.58212,5.72767 3.87229,8.59043 0.0298,0.12147 0.059,0.24221 0.0875,0.36225 0.4892,0.18184 0.97778,0.36296 1.46578,0.54337 3.39165,0.88047 6.78257,1.7602 10.17296,2.63923 0.31419,0.0266 0.62776,0.0524 0.94073,0.0776 0.13187,-0.0338 0.26313,-0.0683 0.39379,-0.1035 0.0225,-0.12867 0.0443,-0.25805 0.0656,-0.38813 z"
             inkscape:path-effect="#path-effect511"
             transform="translate(1193.0312,3.1019663)" /><path
             style="fill:#f1f2ee;fill-opacity:0.756863;stroke:#d4d4d4;stroke-width:7.23302;stroke-linejoin:round;stroke-miterlimit:0;stroke-opacity:0"
             d="m 234.45077,382.04029 c 0.0412,-5.31742 0.0825,-10.63552 0.10313,-13.37996 0.0206,-2.74443 0.0206,-2.91519 -0.0718,-3.04679 -0.0924,-0.1316 -0.27806,-0.22368 -0.45476,-0.26959 -0.1767,-0.0459 -0.34428,-0.0452 -4.64503,-0.0602 -4.30074,-0.0149 -12.73388,-0.0454 -17.0126,-0.0485 -4.27872,-0.003 -4.40248,0.0213 -4.51618,0.43638 -0.1137,0.41507 -0.21683,1.22009 -0.15474,1.90326 0.0621,0.68317 0.28896,1.24423 0.48502,1.63452 0.19607,0.39028 0.36107,0.60984 3.10701,3.67754 2.74595,3.06771 8.07238,8.98319 10.75617,11.92555 2.6838,2.94236 2.72502,2.91188 2.77913,1.9364 0.0541,-0.97549 0.12114,-2.89655 0.1882,-4.81831"
             id="path528"
             sodipodi:nodetypes="ccccccccccccc"
             inkscape:original-d="m 234.45077,382.04029 c 0.0419,-5.31741 0.0831,-10.63552 0.12376,-15.95433 6e-4,-0.17006 6e-4,-0.34082 0,-0.5123 -0.18504,-0.0914 -0.37067,-0.18347 -0.55691,-0.27628 -0.16699,0.001 -0.33457,0.002 -0.50276,0.002 -8.4333,-0.0298 -16.86644,-0.0603 -25.30056,-0.0915 -0.12317,0.0251 -0.24692,0.0495 -0.37127,0.0732 -0.10254,0.80575 -0.20566,1.61077 -0.30939,2.4151 0.22749,0.56181 0.45437,1.12287 0.68066,1.68325 0.16561,0.22027 0.33062,0.43982 0.49502,0.65867 5.32742,5.91661 10.65385,11.8321 15.98012,17.74736 0.0419,-0.0298 0.0831,-0.0603 0.12376,-0.0915 0.0676,-1.92049 0.13467,-3.84155 0.20111,-5.76333"
             inkscape:path-effect="#path-effect530"
             transform="translate(1193.0312,3.1019663)" /><path
             style="fill:#435058;fill-opacity:1;stroke:#d4d4d4;stroke-width:7.23302;stroke-linejoin:round;stroke-miterlimit:0;stroke-opacity:0"
             d="m 196.88364,327.60029 c 0.0104,0.0188 0.0212,0.0384 0.019,0.24838 -0.002,0.21002 -0.0164,0.61139 -0.0222,1.88315 -0.006,1.27177 -0.003,3.41374 0.012,11.25656 0.0151,7.84281 0.0426,21.38581 0.0563,28.23939 0.0137,6.85358 0.0137,7.01745 0.10694,7.2784 0.0932,0.26096 0.27914,0.61888 1.08514,1.58327 0.806,0.96438 2.23174,2.53522 3.53303,4.01195 1.30129,1.47673 2.47799,2.85914 3.13972,3.64129 0.66172,0.78215 0.80843,0.96394 0.85587,1.09559 0.0474,0.13165 -0.004,0.21352 -1.1576,1.75306 -1.15404,1.53955 -3.41101,4.53665 -4.57405,6.05884 -1.16304,1.52219 -1.23234,1.56964 -1.314,1.5413 -0.0817,-0.0283 -0.17628,-0.13321 -1.7679,-1.9725 -1.59161,-1.8393 -4.68009,-5.4129 -6.26099,-7.30317 -1.58089,-1.89028 -1.65382,-2.09728 -1.63938,-8.13491 0.0144,-6.03764 0.11653,-17.90531 0.17486,-26.12491 0.0583,-8.2196 0.0729,-12.79072 0.0947,-15.17988 0.0218,-2.38916 0.051,-2.59616 1.24325,-4.08217 1.19226,-1.48602 3.54695,-4.24977 4.80714,-5.72865 1.26018,-1.47888 1.42459,-1.67139 1.5072,-1.64309 0.0826,0.0283 0.0833,0.27543 0.0841,0.45204 8.4e-4,0.17661 0.002,0.27887 0.004,0.38907 0.002,0.1102 0.005,0.22822 0.008,0.34665 0,0 0.005,0.39034 0.005,0.39034 z"
             id="path536"
             sodipodi:nodetypes="sccccccccccccccccccccssss"
             inkscape:original-d="m 196.88364,327.60029 c 0,0 0.0213,0.0383 0.0311,0.0563 -0.0136,0.40212 -0.0278,0.80349 -0.0427,1.20419 0.003,2.14281 0.006,4.28478 0.008,6.42616 0.0281,13.54425 0.0556,27.08725 0.0825,40.62982 6e-4,0.16459 6e-4,0.32846 0,0.49163 0.18656,0.35864 0.37251,0.71657 0.55787,1.0738 1.42643,1.57165 2.85218,3.14249 4.27741,4.71272 1.17737,1.38321 2.35407,2.76562 3.53024,4.14742 0.1473,0.18249 0.29401,0.36427 0.44011,0.54535 -0.0505,0.0827 -0.10149,0.16458 -0.15314,0.24581 -2.25646,2.99793 -4.51343,5.99503 -6.77104,8.99149 -0.0687,0.0481 -0.13796,0.0956 -0.20783,0.14231 -0.094,-0.10414 -0.18863,-0.209 -0.28383,-0.31457 -3.08801,-3.57304 -6.17649,-7.14664 -9.26564,-10.72103 -0.0723,-0.20629 -0.14524,-0.41328 -0.21877,-0.62099 0.1027,-11.86744 0.20479,-23.73511 0.30628,-35.60372 0.0152,-4.5706 0.0298,-9.14172 0.0437,-13.71365 0.0298,-0.20629 0.059,-0.41328 0.0875,-0.62099 2.35597,-2.76383 4.71066,-5.52758 7.06595,-8.29345 0.16508,-0.19189 0.32949,-0.38441 0.49334,-0.57768 0.001,0.24928 0.002,0.49641 0.002,0.74573 0.002,0.10389 0.002,0.20616 0.003,0.30773 0.004,0.1188 0.009,0.35528 0.009,0.35528 z"
             inkscape:path-effect="#path-effect538"
             transform="translate(1193.0312,3.1019663)" /><path
             style="fill:#435058;fill-opacity:1;stroke:#d4d4d4;stroke-width:7.23302;stroke-linejoin:round;stroke-miterlimit:0;stroke-opacity:0"
             d="m 225.02239,398.92986 c 0.0156,-0.354 0.0468,-1.06266 0.0593,-1.52399 0.0125,-0.46133 0.006,-0.67543 -0.003,-0.81934 -0.009,-0.14391 -0.0218,-0.21773 -1.21682,-1.55393 -1.19502,-1.3362 -3.57296,-3.93457 -4.874,-5.3894 -1.30104,-1.45483 -1.52503,-1.76613 -1.68059,-2.0021 -0.15555,-0.23597 -0.24256,-0.39666 -0.33447,-0.41887 -0.0919,-0.0222 -0.18816,0.0947 -1.15299,1.06517 -0.96483,0.97047 -2.7982,2.79451 -3.75239,3.75827 -0.95418,0.96377 -1.02908,1.06711 -1.10398,1.16676 -0.0749,0.0996 -0.14978,0.19559 -0.16826,0.28449 -0.0185,0.0889 0.019,0.17013 0.0815,0.24753 0.0626,0.0774 0.14996,0.15122 1.87889,1.35445 1.72893,1.20322 5.09923,3.53585 7.3524,5.07496 2.25317,1.53912 3.3891,2.28468 4.01947,2.70548 0.63038,0.42081 0.75519,0.51676 0.90809,0.57557 0.15289,0.0588 0.3339,0.081 0.55853,0.0809 0.22462,-7e-5 0.49299,-0.0222 0.69578,-0.0481 0.20279,-0.0259 0.34009,-0.0554 0.40544,-0.15093 0.0653,-0.0956 0.0591,-0.25797 0.0312,-0.40187 -0.0279,-0.1439 -0.0779,-0.26941 -0.35242,-0.73819 -0.27455,-0.46877 -0.77384,-1.28075 -1.0393,-1.82333 -0.26545,-0.54258 -0.29665,-0.81569 -0.3123,-0.95264 -0.0156,-0.13695 -0.0156,-0.13693 -6e-5,-0.49092 z"
             id="path540"
             sodipodi:nodetypes="ccccccccccccccccccccccsc"
             inkscape:original-d="m 225.0068,399.28385 c 0.0318,-0.70796 0.063,-1.41662 0.0936,-2.12598 -0.005,-0.21337 -0.0119,-0.42745 -0.0187,-0.64223 -0.0119,-0.0731 -0.0244,-0.14692 -0.0375,-0.22145 -2.37743,-2.59776 -4.75537,-5.19613 -7.13395,-7.79526 -0.22341,-0.3106 -0.4474,-0.6219 -0.672,-0.93391 -0.0864,-0.15998 -0.17341,-0.32067 -0.26101,-0.48206 -0.0957,0.11762 -0.19194,0.23454 -0.28881,0.35076 -1.83284,1.82481 -3.66621,3.64884 -5.5002,5.47219 -0.0743,0.10406 -0.1492,0.2074 -0.2247,0.31004 -0.0743,0.0967 -0.14919,0.19263 -0.22469,0.28789 0.038,0.0819 0.0755,0.16311 0.11235,0.2436 0.088,0.0745 0.17536,0.14835 0.26214,0.22146 3.37104,2.33342 6.74134,4.66605 10.11112,6.99801 1.13656,0.74629 2.27248,1.49185 3.40782,2.23671 0.12543,0.0967 0.25026,0.19263 0.37448,0.28789 0.18161,0.0228 0.36261,0.045 0.54301,0.0664 0.26899,-0.0215 0.53736,-0.0436 0.80514,-0.0664 0.13792,-0.0288 0.27522,-0.0583 0.41194,-0.0886 -0.005,-0.1617 -0.0119,-0.32409 -0.0187,-0.4872 -0.0493,-0.12479 -0.0993,-0.25028 -0.14979,-0.37648 -0.49873,-0.81132 -0.99803,-1.6233 -1.49794,-2.43602 -0.0306,-0.27243 -0.0618,-0.54554 -0.0936,-0.81938 z"
             inkscape:path-effect="#path-effect542"
             transform="translate(1193.0312,3.1019663)" /><path
             style="fill:#ffffff;fill-opacity:1;stroke:#d4d4d4;stroke-width:7.23302;stroke-linejoin:round;stroke-miterlimit:0;stroke-opacity:0"
             d="m 223.93618,315.82802 c 0.69281,-1.34132 2.0786,-4.02428 2.7936,-5.49612 0.715,-1.47185 0.75913,-1.73282 0.75485,-1.99372 -0.004,-0.26089 -0.0572,-0.52186 -0.0926,-0.70979 -0.0353,-0.18792 -0.053,-0.30274 -0.0837,-0.3657 -0.0307,-0.063 -0.0747,-0.0734 -4.68564,-0.96859 -4.61094,-0.89522 -13.78799,-2.67506 -18.50938,-3.57944 -4.72138,-0.90439 -4.98616,-0.93309 -5.22172,-0.96309 -0.23555,-0.03 -0.44187,-0.0613 -0.69014,-0.0927 -0.24827,-0.0313 -0.53842,-0.0627 -0.71881,-0.0823 -0.1804,-0.0196 -0.25102,-0.0274 -0.26876,-0.005 -0.0177,0.0225 0.0176,0.0747 1.7345,1.37958 1.71693,1.30487 5.11515,3.86251 9.36085,7.06748 4.2457,3.20498 9.33862,7.0571 11.9734,9.04058 2.63478,1.98348 2.81132,2.09832 2.98779,2.15549 0.17646,0.0572 0.35299,0.0572 0.54721,0.0677 0.19423,0.0105 0.40606,0.0313 0.58247,0.026 0.17642,-0.005 0.31763,-0.0367 0.41003,-0.10949 0.0924,-0.0728 0.13653,-0.18766 0.15868,-0.28668 0.0221,-0.099 0.0221,-0.18254 -0.29979,-0.71494 -0.32193,-0.5324 -0.96627,-1.5137 -1.29517,-2.02518 -0.32891,-0.51149 -0.34216,-0.5533 -0.31147,-0.6423 0.0307,-0.089 0.10572,-0.22472 0.14331,-0.29272 0.0376,-0.068 0.0376,-0.0679 0.73043,-1.4092 z"
             id="path544"
             sodipodi:nodetypes="scccccccccccccccccccccss"
             inkscape:original-d="m 223.24336,317.16935 c 1.38639,-2.68226 2.77219,-5.36521 4.15738,-8.04889 0.0448,-0.26028 0.0889,-0.52126 0.13241,-0.78296 -0.0524,-0.26029 -0.10533,-0.52127 -0.15889,-0.78297 -0.0171,-0.11413 -0.0347,-0.22896 -0.053,-0.34451 -0.0436,-0.01 -0.0877,-0.0202 -0.1324,-0.0313 -9.17716,-1.77926 -18.35421,-3.55911 -27.53273,-5.33982 -0.26421,-0.028 -0.52899,-0.0567 -0.7944,-0.0861 -0.20573,-0.0306 -0.41205,-0.0619 -0.61897,-0.094 -0.28959,-0.0306 -0.57974,-0.0619 -0.87054,-0.094 -0.07,-0.007 -0.14062,-0.0149 -0.21184,-0.0235 0.0359,0.0529 0.0712,0.1051 0.10592,0.15659 3.39895,2.55845 6.79717,5.11609 10.19485,7.67307 5.09372,3.85297 10.18664,7.70509 15.27905,11.55657 0.17713,0.11554 0.35367,0.23038 0.5296,0.34451 0.17714,7e-4 0.35367,7e-4 0.52961,0 0.21244,0.0216 0.42428,0.0424 0.63552,0.0626 0.14183,-0.0306 0.28305,-0.0619 0.42368,-0.094 0.0448,-0.11412 0.0889,-0.22896 0.1324,-0.3445 6e-4,-0.0828 6e-4,-0.16632 0,-0.25055 -0.64376,-0.98063 -1.2881,-1.96193 -1.93305,-2.94395 -0.0126,-0.041 -0.0259,-0.0828 -0.0397,-0.12527 0.0756,-0.13502 0.15065,-0.27073 0.22508,-0.40715 z"
             inkscape:path-effect="#path-effect546"
             transform="translate(1193.0312,3.1019663)" /><path
             id="path574"
             style="fill:#ffffff;fill-opacity:0.980392;stroke:#d4d4d4;stroke-width:7.23302;stroke-linejoin:round;stroke-miterlimit:0;stroke-opacity:0"
             d="m 231.57474,389.57201 c -1.10529,0.003 -1.19242,0.0318 -1.24882,0.10605 -0.0564,0.0742 -0.0818,0.19289 -0.0942,0.28889 -0.0127,0.096 -0.0123,0.16943 -0.0183,1.82295 -0.006,1.65354 -0.0196,4.8872 -0.0256,6.59244 -0.006,1.70524 -0.006,1.88224 0.032,2.08899 0.0376,0.20675 0.11193,0.44259 0.49733,1.71965 0.3854,1.27707 1.08187,3.59514 1.49384,4.93312 0.41196,1.33799 0.53956,1.69576 0.96084,2.99682 0.42128,1.30105 1.13549,3.5456 1.50846,4.70457 0.37302,1.15898 0.40486,1.23266 0.44706,1.30276 0.0423,0.0701 0.0948,0.13673 0.1417,0.18833 0.0469,0.0516 0.0873,0.0878 0.38489,0.11885 0.29737,0.0311 0.85179,0.0575 1.12906,0.0704 h 9.1e-4 c 0.0302,10e-4 0.0291,7.7e-4 0.053,0.002 3.8e-4,0.003 0.002,0.01 0.002,0.0119 0.001,0.0106 0.002,0.0109 0.27884,-0.002 0.27704,-0.0129 0.83144,-0.0384 1.12906,-0.0695 0.29762,-0.0311 0.33801,-0.0682 0.38489,-0.11977 0.0469,-0.0516 0.10035,-0.11825 0.14262,-0.18833 0.0422,-0.0701 0.0731,-0.14378 0.44614,-1.30276 0.37297,-1.15897 1.08809,-3.40352 1.50937,-4.70457 0.42128,-1.30106 0.54888,-1.65882 0.96085,-2.99681 0.41197,-1.33799 1.10752,-3.65606 1.49292,-4.93313 0.3854,-1.27706 0.46067,-1.51289 0.49825,-1.71964 0.0376,-0.20675 0.0374,-0.38376 0.0311,-2.089 -0.006,-1.70523 -0.0185,-4.93889 -0.0247,-6.59243 -0.006,-1.65353 -0.006,-1.7269 -0.0183,-1.82295 -0.0124,-0.096 -0.0378,-0.21474 -0.0942,-0.2889 -0.0564,-0.0742 -0.14361,-0.10329 -1.23603,-0.11062 -1.09242,-0.007 -2.89047,0.005 -4.09021,0.0137 -1.19975,0.008 -1.20541,0.008 -1.2342,0.007 -0.0288,-8.9e-4 -0.0791,-0.003 -0.10239,0.0192 -4.3e-4,4.1e-4 -5.1e-4,0.002 -9.2e-4,0.003 -0.11232,-0.004 -0.36267,-0.008 -1.02941,-0.0165 -1.07981,-0.013 -3.20251,-0.0368 -4.3078,-0.0338 z"
             transform="translate(1193.0312,3.1019663)" /><path
             id="path578"
             style="fill:#ffffff;fill-opacity:1;stroke:#d4d4d4;stroke-width:7.23302;stroke-linejoin:round;stroke-miterlimit:0;stroke-opacity:0"
             d="m 1429.8167,300.02564 c -0.051,0.004 -0.088,0.0403 -0.1116,0.0603 -0.023,0.02 -0.033,0.0234 -0.1024,0.1353 -0.07,0.11187 -0.2048,0.34185 -1.6657,3.45027 -1.4608,3.1084 -4.2498,9.10097 -5.6444,12.09695 -1.3945,2.99598 -1.3947,2.99536 -1.4179,3.04526 -0.023,0.0499 -0.069,0.14954 -0.1143,0.25233 -0.045,0.10279 -0.088,0.2085 -0.1271,0.3026 -0.039,0.0941 -0.073,0.17664 -0.085,0.27244 -0.012,0.0958 0,0.20489 1.3522,3.07818 1.3552,2.87327 4.0496,8.49713 5.4368,11.39208 1.3873,2.89495 1.4554,3.03599 1.525,3.15497 0.07,0.11898 0.14,0.21428 0.2678,0.29438 0.1279,0.0802 0.3126,0.14535 0.458,0.17645 0.091,0.0197 0.1594,0.0247 0.2149,0.0256 0.025,0.009 0.062,0.0128 0.128,0.009 0.083,-0.004 0.1951,-0.0189 0.3145,-0.0622 0.1193,-0.0434 0.2376,-0.11293 0.3373,-0.1929 0.1,-0.08 0.1759,-0.16621 1.6036,-3.0992 1.4276,-2.93299 4.2055,-8.71092 5.5986,-11.65447 1.3932,-2.94356 1.402,-3.05272 1.3897,-3.14857 -0.012,-0.0958 -0.046,-0.17832 -0.085,-0.27244 -0.039,-0.0941 -0.082,-0.19983 -0.1271,-0.30261 -0.045,-0.10277 -0.091,-0.20252 -0.1143,-0.25232 -0.023,-0.0498 -0.023,-0.0492 -1.4179,-3.04527 h -10e-4 c -1.3945,-2.99602 -4.1835,-8.98853 -5.6444,-12.09695 -1.4608,-3.10841 -1.589,-3.32606 -1.6739,-3.44752 -0.085,-0.12146 -0.1172,-0.13284 -0.1527,-0.14536 -0.035,-0.0125 -0.074,-0.0266 -0.1078,-0.0229 -10e-4,10e-5 0,7.7e-4 0,9.1e-4 -0.01,-10e-4 -0.021,-0.005 -0.031,-0.005 z" /><g
             id="g714"
             style="fill:#b11226;fill-opacity:0.984234"
             transform="matrix(0.59917738,0,0,0.70865957,1225.9187,59.2908)"><path
               style="fill:#435058;fill-opacity:1;stroke:#d4d4d4;stroke-width:11.1;stroke-linejoin:round;stroke-miterlimit:0;stroke-opacity:0"
               d="m 377.26284,390.57105 c -3.07944,-1.35106 -9.23785,-4.05297 -12.52394,-5.50129 -3.2861,-1.44832 -3.6999,-1.64305 -3.90658,-1.97106 -0.20669,-0.32802 -0.20669,-0.7905 -0.0612,-1.15565 0.14554,-0.36515 0.43763,-0.6329 5.19643,-3.68793 4.7588,-3.05503 13.98406,-8.89688 18.73065,-11.8667 4.74659,-2.96982 5.01433,-3.06718 5.33091,-3.10394 0.31658,-0.0368 0.68169,-0.0124 2.42259,1.43592 1.7409,1.44836 4.85655,4.3206 6.54833,5.90285 1.69178,1.58225 1.95953,1.87434 2.02036,6.40244 0.0608,4.5281 -0.0852,13.29088 -0.17046,17.81843 -0.0852,4.52756 -0.10956,4.81966 -0.47522,5.05051 -0.36567,0.23085 -1.07156,0.40123 -1.74069,0.38882 -0.66913,-0.0124 -1.302,-0.20714 -4.34464,-1.63115 -3.04264,-1.42401 -8.49503,-4.07719 -11.22108,-5.4037 -2.72604,-1.32651 -2.72606,-1.32649 -5.8055,-2.67755 z"
               id="path477-6"
               inkscape:original-d="m 380.34228,391.92211 c -6.15941,-2.70091 -12.31782,-5.40282 -18.47523,-8.10573 -0.41481,-0.19374 -0.82861,-0.38847 -1.24142,-0.5842 -10e-4,-0.4615 -10e-4,-0.92398 0,-1.38747 0.29111,-0.26676 0.5832,-0.53451 0.8763,-0.80327 9.22463,-5.84108 18.44988,-11.68294 27.67633,-17.52591 0.26676,-0.0964 0.53451,-0.19373 0.80327,-0.29209 0.36413,0.0253 0.72924,0.0497 1.09537,0.073 3.11478,2.87336 6.23043,5.7456 9.34715,8.61691 0.26676,0.2931 0.53451,0.58519 0.80327,0.87629 -0.14705,8.76413 -0.2931,17.52691 -0.43815,26.28886 -0.0253,0.29311 -0.0497,0.5852 -0.073,0.8763 -0.70692,0.17139 -1.41281,0.34178 -2.11772,0.51117 -0.63389,-0.19374 -1.26676,-0.38847 -1.89864,-0.5842 -5.45361,-2.65228 -10.90601,-5.30545 -16.35751,-7.95968 z"
               inkscape:path-effect="#path-effect479-8" /><path
               style="fill:#f1f2ee;fill-opacity:0.756863;stroke:#d4d4d4;stroke-width:11.1;stroke-linejoin:round;stroke-miterlimit:0;stroke-opacity:0"
               d="m 358.49081,390.0296 c 5.42154,2.20304 16.26514,6.60933 21.85915,8.90715 5.59401,2.29782 5.93824,2.48714 6.09331,3.40861 0.15507,0.92147 0.12065,2.5738 0.1056,3.54412 -0.0151,0.97031 -0.0108,1.25861 -0.093,1.48452 -0.0823,0.22591 -0.25008,0.38942 -0.49761,0.53979 -0.24753,0.15037 -0.57455,0.28806 -6.89579,2.04148 -6.32125,1.75342 -18.63623,5.12261 -25.08639,6.82433 -6.45016,1.70171 -7.03537,1.73614 -7.48231,1.56403 -0.44695,-0.1721 -0.75676,-0.55076 -0.8945,-3.90673 -0.13774,-3.35596 -0.10332,-9.68987 -0.0861,-13.04623 0.0172,-3.35636 0.0172,-3.73502 1.04957,-5.49061 1.03237,-1.75558 3.09778,-4.88811 4.24432,-6.51706 1.14654,-1.62895 1.3746,-1.75373 1.59875,-1.76276 0.22415,-0.009 0.4436,0.0985 0.55353,0.15243 0.10993,0.0539 0.10994,0.0539 5.53149,2.25693 z"
               id="path492-9"
               sodipodi:nodetypes="scccccccccccccss"
               inkscape:original-d="m 353.06926,387.82656 c 10.8426,4.40729 21.6862,8.81358 32.5308,13.21886 0.34325,0.19034 0.68748,0.37967 1.03273,0.568 -0.0354,1.65339 -0.0699,3.30572 -0.10328,4.95708 0.003,0.28931 0.008,0.5776 0.0129,0.8649 -0.16882,0.16452 -0.33663,0.32803 -0.50345,0.49055 -0.32804,0.1387 -0.65506,0.27639 -0.98109,0.41309 -12.31648,3.37033 -24.63146,6.73952 -36.9457,10.10778 -0.58622,0.0354 -1.17142,0.0699 -1.75563,0.10328 -0.31082,-0.37768 -0.62063,-0.75634 -0.92945,-1.136 0.0334,-6.33317 0.0679,-12.66708 0.10327,-19.00212 -10e-4,-0.37767 -10e-4,-0.75633 0,-1.136 2.06449,-3.13166 4.1299,-6.26419 6.19635,-9.39779 0.22706,-0.12379 0.45512,-0.24857 0.68418,-0.37436 0.21846,0.10858 0.43791,0.21615 0.65836,0.32273 z"
               inkscape:path-effect="#path-effect494-3" /><path
               style="fill:#dcf763;fill-opacity:0.980392;stroke:#d4d4d4;stroke-width:11.1;stroke-linejoin:round;stroke-miterlimit:0;stroke-opacity:0"
               d="m 351.35152,430.95426 c -0.0365,-1.86164 -0.10953,-5.5859 -0.13393,-7.57577 -0.0244,-1.98987 -8e-5,-2.24546 0.13946,-2.51324 0.13954,-0.26777 0.39512,-0.5477 0.69318,-0.77308 0.29807,-0.22538 0.63884,-0.39577 4.98999,-1.38179 4.35116,-0.98603 12.71231,-2.78727 17.02691,-3.69409 4.3146,-0.90682 4.58235,-0.91899 4.84458,-0.77291 0.26224,0.14608 0.51782,0.45034 0.65777,0.81589 0.13995,0.36555 0.16428,0.79152 -0.90103,3.02502 -1.06531,2.2335 -3.2195,6.27412 -4.32081,8.37967 -1.10131,2.10554 -1.14999,2.27593 -1.58248,2.48851 -0.4325,0.21258 -1.24793,0.46816 -4.48539,1.21661 -3.23746,0.74846 -8.89675,1.98985 -11.98809,2.62873 -3.09133,0.63888 -3.61466,0.67539 -3.98571,0.66919 -0.37105,-0.006 -0.59013,-0.0549 -0.71747,-0.17005 -0.12734,-0.11516 -0.16385,-0.29772 -0.18219,-0.38938 -0.0183,-0.0917 -0.0183,-0.0917 -0.0548,-1.95331 z"
               id="path509-5"
               inkscape:original-d="m 351.38802,432.81589 c -0.074,-3.72325 -0.14705,-7.44751 -0.21907,-11.17276 0.0233,-0.2546 0.0477,-0.51018 0.073,-0.76676 0.25459,-0.27894 0.51017,-0.55886 0.76676,-0.83979 0.33979,-0.16939 0.68056,-0.33978 1.02234,-0.51117 8.36049,-1.80031 16.72164,-3.60155 25.08396,-5.40382 0.26676,-0.0112 0.53451,-0.0233 0.80327,-0.0365 0.25459,0.30527 0.51017,0.60954 0.76676,0.91281 0.0233,0.42698 0.0477,0.85295 0.073,1.27793 -2.15527,4.04177 -4.30945,8.08239 -6.46268,12.12208 -0.0497,0.1714 -0.0984,0.34178 -0.14605,0.51117 -0.81645,0.2566 -1.63188,0.51218 -2.44632,0.76676 -5.66052,1.24245 -11.31981,2.48384 -16.97822,3.72426 -0.52436,0.0375 -1.04769,0.074 -1.57003,0.10954 -0.22008,-0.0477 -0.43915,-0.0964 -0.65722,-0.14605 -0.0375,-0.18157 -0.074,-0.36413 -0.10954,-0.54769 z"
               inkscape:path-effect="#path-effect511-4" /><path
               style="fill:#f1f2ee;fill-opacity:0.756863;stroke:#d4d4d4;stroke-width:11.1;stroke-linejoin:round;stroke-miterlimit:0;stroke-opacity:0"
               d="m 345.01421,459.85886 c -0.0688,-7.50348 -0.13768,-15.00794 -0.17211,-18.88065 -0.0344,-3.87271 -0.0344,-4.11368 0.11988,-4.29939 0.1543,-0.18571 0.46411,-0.31566 0.75898,-0.38039 0.29486,-0.0647 0.57454,-0.0637 7.7523,-0.0847 7.17775,-0.021 21.25228,-0.064 28.39323,-0.0684 7.14095,-0.004 7.34751,0.0301 7.5373,0.61576 0.1898,0.5857 0.36192,1.72168 0.25829,2.68575 -0.10363,0.96407 -0.48228,1.7558 -0.80949,2.30652 -0.32722,0.55072 -0.6026,0.86053 -5.18545,5.1894 -4.58285,4.32888 -13.47243,12.67631 -17.95164,16.82827 -4.4792,4.15197 -4.54805,4.10894 -4.63825,2.73248 -0.0902,-1.37645 -0.20208,-4.08729 -0.314,-6.7991"
               id="path528-5"
               sodipodi:nodetypes="ccccccccccccc"
               inkscape:original-d="m 345.01421,459.85886 c -0.0699,-7.50347 -0.13869,-15.00793 -0.20654,-22.51339 -10e-4,-0.23997 -10e-4,-0.48094 0,-0.72291 0.30882,-0.12895 0.61863,-0.2589 0.92945,-0.38986 0.2787,0.002 0.55838,0.003 0.83909,0.003 14.0748,-0.042 28.14933,-0.0851 42.2255,-0.12909 0.20555,0.0354 0.41209,0.0699 0.61963,0.10328 0.17113,1.13701 0.34324,2.27299 0.51636,3.40798 -0.37967,0.79278 -0.75833,1.58451 -1.13599,2.37527 -0.2764,0.31082 -0.55179,0.62063 -0.82618,0.92945 -8.89121,8.34902 -17.78079,16.69645 -26.67009,25.04356 -0.0699,-0.042 -0.1387,-0.0851 -0.20655,-0.12909 -0.11289,-2.71002 -0.22476,-5.42086 -0.33564,-8.13271"
               inkscape:path-effect="#path-effect530-0" /><path
               style="fill:#435058;fill-opacity:1;stroke:#d4d4d4;stroke-width:11.1;stroke-linejoin:round;stroke-miterlimit:0;stroke-opacity:0"
               d="m 407.71187,383.03797 c -0.0173,0.0265 -0.0354,0.0542 -0.0317,0.35053 0.004,0.29637 0.0273,0.86275 0.037,2.65737 0.01,1.79461 0.005,4.81717 -0.0197,15.88429 -0.0251,11.06711 -0.071,30.17784 -0.0939,39.84903 -0.0229,9.67118 -0.0229,9.90242 -0.17848,10.27068 -0.15554,0.36825 -0.46589,0.87333 -1.81105,2.23416 -1.34515,1.36082 -3.72466,3.57746 -5.89646,5.6613 -2.1718,2.08383 -4.13565,4.03459 -5.24005,5.1383 -1.10439,1.1037 -1.34923,1.36022 -1.4285,1.54586 -0.0793,0.18565 0.006,0.30127 1.93194,2.47374 1.92603,2.17247 5.6928,6.40172 7.63385,8.54974 1.94105,2.14801 2.05668,2.21496 2.19308,2.17503 0.1364,-0.0399 0.29431,-0.18791 2.95064,-2.78337 2.65634,-2.59545 7.81087,-7.63822 10.4493,-10.3056 2.63843,-2.66737 2.76013,-2.95946 2.73604,-11.47928 -0.0241,-8.51981 -0.19447,-25.26646 -0.29184,-36.86526 -0.0974,-11.5988 -0.12169,-18.04918 -0.15814,-21.42058 -0.0364,-3.3714 -0.0851,-3.66349 -2.07503,-5.76049 -1.98991,-2.097 -5.91979,-5.99698 -8.02298,-8.08385 -2.10319,-2.08687 -2.37758,-2.35853 -2.51531,-2.3185 -0.13772,0.04 -0.13872,0.38875 -0.14006,0.63796 -0.001,0.24922 -0.003,0.39353 -0.006,0.54902 -0.003,0.15548 -0.009,0.32205 -0.0139,0.48916 0,0 -0.008,0.55076 -0.008,0.55076 z"
               id="path536-8"
               sodipodi:nodetypes="sccccccccccccccccccccssss"
               inkscape:original-d="m 407.71187,383.03797 c 0,0 -0.0356,0.054 -0.0519,0.0795 0.0227,0.56745 0.0464,1.13383 0.0712,1.69926 -0.005,3.02375 -0.01,6.04631 -0.0129,9.06805 -0.0469,19.11249 -0.0928,38.22322 -0.13767,57.33334 -10e-4,0.23225 -10e-4,0.46349 0,0.69374 -0.31136,0.50609 -0.62171,1.01117 -0.93106,1.51526 -2.38065,2.21777 -4.76016,4.43441 -7.13881,6.65018 -1.96497,1.95187 -3.92883,3.90262 -5.8918,5.85249 -0.24585,0.25752 -0.49069,0.51403 -0.73453,0.76955 0.0842,0.11663 0.16939,0.23225 0.25558,0.34687 3.76593,4.23043 7.53271,8.45968 11.30056,12.68802 0.11463,0.0679 0.23025,0.13488 0.34687,0.20082 0.15689,-0.14695 0.3148,-0.29492 0.4737,-0.44389 5.15375,-5.04197 10.30828,-10.08474 15.46392,-15.12861 0.12071,-0.2911 0.24241,-0.58319 0.36512,-0.87629 -0.17139,-16.74631 -0.34178,-33.49296 -0.51117,-50.24093 -0.0253,-6.44964 -0.0497,-12.90002 -0.073,-19.35153 -0.0497,-0.2911 -0.0984,-0.58319 -0.14605,-0.87629 -3.932,-3.90009 -7.86188,-7.80006 -11.79274,-11.70301 -0.27552,-0.27079 -0.54991,-0.54245 -0.82336,-0.81518 -0.002,0.35177 -0.003,0.7005 -0.003,1.05232 -0.003,0.14659 -0.004,0.29091 -0.005,0.43424 -0.006,0.16763 -0.0157,0.50133 -0.0157,0.50133 z"
               inkscape:path-effect="#path-effect538-2" /><path
               style="fill:#435058;fill-opacity:1;stroke:#d4d4d4;stroke-width:11.1;stroke-linejoin:round;stroke-miterlimit:0;stroke-opacity:0"
               d="m 360.74955,483.69217 c -0.026,-0.49953 -0.0781,-1.49952 -0.099,-2.15052 -0.0209,-0.65099 -0.0105,-0.95309 0.005,-1.15615 0.0155,-0.20306 0.0364,-0.30723 2.03078,-2.19278 1.99443,-1.88555 5.9631,-5.55214 8.13446,-7.60507 2.17137,-2.05292 2.5452,-2.49219 2.80481,-2.82517 0.25961,-0.33298 0.40482,-0.55973 0.55813,-0.59118 0.15331,-0.0315 0.31398,0.13353 1.92423,1.50299 1.61025,1.36946 4.67006,3.94337 6.26257,5.30335 1.59251,1.35998 1.71751,1.50581 1.8425,1.64642 0.12498,0.1406 0.24998,0.27601 0.28088,0.40159 0.0309,0.12557 -0.0316,0.24016 -0.136,0.34935 -0.10441,0.10918 -0.25024,0.21334 -3.13574,1.91123 -2.88549,1.69789 -8.51038,4.98949 -12.27082,7.16136 -3.76044,2.17187 -5.65624,3.22394 -6.70831,3.81774 -1.05207,0.59379 -1.2604,0.72921 -1.51557,0.81221 -0.25518,0.083 -0.55727,0.11424 -0.93219,0.11415 -0.37492,-9e-5 -0.82282,-0.0313 -1.1613,-0.0678 -0.33848,-0.0365 -0.56763,-0.0782 -0.67664,-0.21297 -0.10902,-0.13482 -0.0986,-0.364 -0.052,-0.56704 0.0466,-0.20304 0.12994,-0.38014 0.58816,-1.04164 0.45821,-0.66151 1.29153,-1.80732 1.73457,-2.57296 0.44304,-0.76564 0.49513,-1.15104 0.52124,-1.3443 0.0261,-0.19327 0.0262,-0.19327 2e-4,-0.6928 z"
               id="path540-4"
               sodipodi:nodetypes="ccccccccccccccccccccccsc"
               inkscape:original-d="m 360.77557,484.1917 c -0.0531,-0.999 -0.10517,-1.999 -0.15625,-3 0.009,-0.30109 0.0198,-0.60317 0.0312,-0.90625 0.0198,-0.10317 0.0407,-0.20733 0.0625,-0.3125 3.96783,-3.66574 7.9365,-7.33233 11.90625,-11 0.37285,-0.4383 0.74668,-0.87757 1.12153,-1.31786 0.14421,-0.22575 0.28941,-0.4525 0.43561,-0.68024 0.15967,0.16598 0.32034,0.33097 0.48202,0.49496 3.05892,2.57502 6.11873,5.14893 9.17959,7.72189 0.124,0.14684 0.249,0.29267 0.375,0.4375 0.124,0.13642 0.249,0.27183 0.375,0.40625 -0.0635,0.11558 -0.126,0.23017 -0.1875,0.34375 -0.14684,0.10517 -0.29267,0.20933 -0.4375,0.3125 -5.62611,3.29273 -11.251,6.58433 -16.875,9.875 -1.89687,1.0531 -3.79267,2.10517 -5.6875,3.15625 -0.20934,0.13642 -0.41767,0.27183 -0.625,0.40625 -0.30309,0.0322 -0.60517,0.0635 -0.90625,0.0937 -0.44893,-0.0303 -0.89683,-0.0615 -1.34375,-0.0937 -0.23017,-0.0407 -0.45933,-0.0823 -0.6875,-0.125 0.009,-0.22817 0.0198,-0.45733 0.0312,-0.6875 0.0823,-0.17609 0.16567,-0.35317 0.25,-0.53125 0.83235,-1.14486 1.66567,-2.29067 2.5,-3.4375 0.0511,-0.38443 0.10317,-0.76983 0.15625,-1.15625 z"
               inkscape:path-effect="#path-effect542-9" /><path
               style="fill:#ffffff;fill-opacity:1;stroke:#d4d4d4;stroke-width:11.1;stroke-linejoin:round;stroke-miterlimit:0;stroke-opacity:0"
               d="m 362.56236,366.42589 c -1.15633,-1.89285 -3.46915,-5.67881 -4.6624,-7.7557 -1.19326,-2.07689 -1.26692,-2.44516 -1.25977,-2.81325 0.007,-0.36809 0.0955,-0.73637 0.1545,-1.00155 0.059,-0.26518 0.0884,-0.42721 0.13954,-0.51606 0.0511,-0.0889 0.12473,-0.10359 7.8202,-1.36685 7.69548,-1.26326 23.01156,-3.77482 30.89133,-5.05102 7.87978,-1.2762 8.32169,-1.31671 8.71483,-1.35904 0.39314,-0.0423 0.73747,-0.0865 1.15181,-0.13075 0.41435,-0.0442 0.8986,-0.0884 1.19969,-0.11603 0.30109,-0.0276 0.41893,-0.0386 0.44849,-0.007 0.0296,0.0318 -0.0293,0.10546 -2.8948,1.94674 -2.86546,1.84128 -8.53693,5.4504 -15.62281,9.97299 -7.08588,4.52259 -15.58573,9.95837 -19.98307,12.75729 -4.39733,2.79892 -4.69196,2.96097 -4.98649,3.04166 -0.29454,0.0807 -0.58916,0.0807 -0.91329,0.0955 -0.32414,0.0148 -0.67767,0.0442 -0.97216,0.0368 -0.29449,-0.007 -0.53019,-0.0517 -0.68437,-0.15451 -0.15419,-0.10282 -0.22784,-0.26486 -0.26477,-0.40453 -0.0369,-0.13968 -0.0369,-0.25752 0.50034,-1.00878 0.53728,-0.75126 1.61265,-2.13599 2.16159,-2.85777 0.54895,-0.72178 0.57106,-0.78072 0.5198,-0.90643 -0.0513,-0.1257 -0.17646,-0.3172 -0.23915,-0.41307 -0.0627,-0.0959 -0.0627,-0.0959 -1.21904,-1.98875 z"
               id="path544-3"
               sodipodi:nodetypes="scccccccccccccccccccccss"
               inkscape:original-d="m 363.71869,368.31873 c -2.31383,-3.78497 -4.62666,-7.57093 -6.93848,-11.3579 -0.0747,-0.36729 -0.14832,-0.73557 -0.22098,-1.10486 0.0874,-0.36729 0.17578,-0.73557 0.26517,-1.10485 0.0285,-0.16105 0.0579,-0.32309 0.0884,-0.48614 0.0727,-0.0137 0.14631,-0.0285 0.22097,-0.0442 15.31627,-2.51075 30.63235,-5.02231 45.95089,-7.5351 0.44096,-0.0395 0.88287,-0.08 1.32582,-0.12154 0.34336,-0.0432 0.68769,-0.0874 1.03304,-0.13259 0.48331,-0.0432 0.96756,-0.0874 1.45289,-0.13259 0.11686,-0.01 0.23469,-0.0211 0.35355,-0.0331 -0.0599,0.0747 -0.11885,0.14831 -0.17678,0.22097 -5.67269,3.61026 -11.34417,7.21938 -17.01475,10.82757 -8.50118,5.43699 -17.00103,10.87277 -25.50004,16.30765 -0.29563,0.16305 -0.59026,0.32509 -0.88388,0.48614 -0.29564,0.001 -0.59026,0.001 -0.88389,0 -0.35456,0.0305 -0.7081,0.0599 -1.06066,0.0884 -0.2367,-0.0432 -0.4724,-0.0874 -0.7071,-0.13259 -0.0747,-0.16104 -0.14832,-0.32309 -0.22097,-0.48613 -0.001,-0.11686 -0.001,-0.2347 0,-0.35356 1.07441,-1.38377 2.14978,-2.7685 3.22617,-4.15425 0.0211,-0.0579 0.0432,-0.11685 0.0663,-0.17677 -0.12622,-0.19052 -0.25143,-0.38202 -0.37565,-0.57453 z"
               inkscape:path-effect="#path-effect546-0" /></g><text
             xml:space="preserve"
             style="font-style:normal;font-variant:normal;font-weight:normal;font-stretch:normal;font-size:21.2578px;line-height:1.25;font-family:'Tempus Sans ITC';-inkscape-font-specification:'Tempus Sans ITC';writing-mode:lr-tb;fill:#25037b;fill-opacity:0.628378;stroke:#d4d4d4;stroke-width:8.84852;stroke-linejoin:round;stroke-miterlimit:0;stroke-opacity:0"
             x="1329.3889"
             y="482.74472"
             id="text6611"
             inkscape:label="text6611"
             transform="scale(1.0799318,0.92598441)"><tspan
               sodipodi:role="line"
               id="tspan6609"
               x="1329.3889"
               y="482.74472"
               style="font-style:normal;font-variant:normal;font-weight:normal;font-stretch:normal;font-family:Transformers;-inkscape-font-specification:Transformers;text-align:center;text-anchor:middle;fill:#d92121;fill-opacity:1;stroke-width:8.84852"><tspan
   style="fill:#000000;fill-opacity:1"
   id="tspan17050">OPTIMUS pro</tspan> </tspan><tspan
               sodipodi:role="line"
               x="1329.3889"
               y="511.20978"
               style="font-style:normal;font-variant:normal;font-weight:normal;font-stretch:normal;font-family:Transformers;-inkscape-font-specification:Transformers;text-align:center;text-anchor:middle;fill:#000000;fill-opacity:1;stroke-width:8.84852"
               id="tspan23047">SOFTWARE</tspan></text></g></g></g></g></svg>
